<?xml version="1.0" encoding="UTF-8"?>
<svg version="1.1" xmlns="http://www.w3.org/2000/svg" width="149" height="148">
<path d="M0 0 C49.17 0 98.34 0 149 0 C149 48.84 149 97.68 149 148 C99.83 148 50.66 148 0 148 C0 99.16 0 50.32 0 0 Z " fill="#22A8F2" transform="translate(0,0)"/>
<path d="M0 0 C0.99 0.495 0.99 0.495 2 1 C2.19870375 5.99854577 2.3433522 10.99476527 2.43945312 15.99633789 C2.47953163 17.69498764 2.53401432 19.393364 2.60351562 21.09106445 C3.16458196 35.15485231 3.16458196 35.15485231 0.37695312 39.5715332 C-1.65697833 41.37142784 -3.62772859 42.68881987 -6 44 C-6.9590625 44.73347656 -7.918125 45.46695313 -8.90625 46.22265625 C-9.7621875 46.82980469 -10.618125 47.43695313 -11.5 48.0625 C-16.05406306 51.30658408 -20.53391917 54.63657275 -25 58 C-26.42684875 59.07062521 -27.8539325 60.14093729 -29.28125 61.2109375 C-30.32539063 61.99404297 -30.32539063 61.99404297 -31.390625 62.79296875 C-34.59375 65.1953125 -37.796875 67.59765625 -41 70 C-39.25288622 73.84045742 -37.36412559 75.45496581 -33.875 77.875 C-32.39193359 78.91914063 -32.39193359 78.91914063 -30.87890625 79.984375 C-29.92886719 80.64953125 -28.97882813 81.3146875 -28 82 C-26.59872415 83.03433367 -25.20218196 84.07514087 -23.8125 85.125 C-21.95326472 86.52784352 -20.09430227 87.93015414 -18.22265625 89.31640625 C-16.97588273 90.24160183 -15.74256108 91.18516642 -14.52246094 92.14526367 C-12.55552381 93.59152978 -10.63527126 94.83023854 -8.54760742 96.07714844 C0.9090337 102.08137365 0.9090337 102.08137365 2.76525879 107.04727173 C3.82171906 112.5401151 3.41951153 118.01589403 3.0625 123.5625 C3.01790608 125.22966381 2.9794482 126.89700356 2.94726562 128.56445312 C2.69179092 136.87296445 2.69179092 136.87296445 2 141 C-1.31117552 143.20745035 -2.15915651 143.63091665 -6 143 C-8.31720696 141.36538114 -10.29546745 139.77270259 -12.375 137.875 C-12.97932861 137.34092529 -13.58365723 136.80685059 -14.20629883 136.2565918 C-19.42362924 131.61337564 -24.50501401 126.81977693 -29.58105469 122.02319336 C-34.10127717 117.77169276 -38.75348573 113.80294347 -43.6328125 109.96484375 C-46.2579466 107.78589581 -48.60066022 105.42474883 -51 103 C-53.04209809 101.0816756 -55.11378037 99.19653452 -57.1875 97.3125 C-62.77533784 92.22466216 -62.77533784 92.22466216 -65 90 C-68.28239035 90.35227728 -70.30849795 91.76050045 -72.86328125 93.765625 C-73.94706055 94.60673828 -73.94706055 94.60673828 -75.05273438 95.46484375 C-75.79845703 96.05394531 -76.54417969 96.64304687 -77.3125 97.25 C-79.50979485 98.96693803 -81.70921772 100.68068725 -83.91650391 102.38476562 C-85.25312032 103.42098009 -86.57942431 104.47071683 -87.89208984 105.53710938 C-90.61268492 107.65853023 -92.69291858 108.94244638 -96.10546875 109.58203125 C-99.87083432 108.82489296 -101.54428074 107.3212989 -104.3125 104.6875 C-105.60607422 103.48673828 -105.60607422 103.48673828 -106.92578125 102.26171875 C-109.99157511 98.91879098 -110.13186066 96.23709483 -110.19287109 91.87353516 C-110.21696548 90.30643295 -110.21696548 90.30643295 -110.24154663 88.70767212 C-110.28602343 83.93988736 -110.32704304 79.17224045 -110.35009766 74.40429688 C-110.36667624 71.88825239 -110.39399082 69.37225536 -110.43212891 66.85644531 C-110.48682216 63.22956909 -110.50875922 59.60379524 -110.5234375 55.9765625 C-110.54610687 54.85246979 -110.56877625 53.72837708 -110.59213257 52.57022095 C-110.57088828 44.73573392 -110.57088828 44.73573392 -107.56665039 40.86401367 C-106.71965576 40.24888916 -105.87266113 39.63376465 -105 39 C-104.47535156 38.40574219 -103.95070313 37.81148437 -103.41015625 37.19921875 C-102.96542969 36.70035156 -102.52070312 36.20148437 -102.0625 35.6875 C-101.62035156 35.17574219 -101.17820312 34.66398437 -100.72265625 34.13671875 C-97.87001839 32.25436588 -96.38647639 32.41679511 -93 33 C-89.61072232 34.94256494 -86.57890784 37.29093177 -83.5 39.6875 C-82.67113281 40.31333984 -81.84226562 40.93917969 -80.98828125 41.58398438 C-77.42715608 44.28738226 -73.96635539 47.01403041 -70.65625 50.01953125 C-68.26097382 52.21615627 -68.26097382 52.21615627 -65.8203125 52.00390625 C-63.75525214 50.86502103 -62.45963743 49.68537897 -60.875 47.9375 C-57.33731141 44.22445184 -53.48890885 41.11765825 -49.4296875 37.9921875 C-46.76811632 35.80987029 -44.41594129 33.45162728 -42 31 C-39.62500273 28.70675585 -37.22123522 26.44521734 -34.8125 24.1875 C-34.18408203 23.59001953 -33.55566406 22.99253906 -32.90820312 22.37695312 C-32.30556641 21.81298828 -31.70292969 21.24902344 -31.08203125 20.66796875 C-30.53780518 20.15516357 -29.9935791 19.6423584 -29.43286133 19.11401367 C-28 18 -28 18 -26 18 C-26 17.34 -26 16.68 -26 16 C-24.6015625 14.58984375 -24.6015625 14.58984375 -22.625 12.9375 C-18.37741597 9.34106076 -14.28224201 5.60207659 -10.19921875 1.8203125 C-6.58921226 -1.16772129 -4.36561675 -1.11938891 0 0 Z " fill="#0284CF" transform="translate(110,3)"/>
<path d="M0 0 C49.17 0 98.34 0 149 0 C149 7.26 149 14.52 149 22 C147.02 19.525 147.02 19.525 145 17 C142.55896834 15.40827178 142.55896834 15.40827178 139.82421875 14.2109375 C138.33438477 13.51097656 138.33438477 13.51097656 136.81445312 12.796875 C135.78255859 12.32765625 134.75066406 11.8584375 133.6875 11.375 C132.66720703 10.89804688 131.64691406 10.42109375 130.59570312 9.9296875 C125.43450429 7.52757815 120.24125685 5.22099143 115 3 C114.01 2.505 114.01 2.505 113 2 C108.90315903 1.2187842 105.42695698 1.09406691 101.82958984 3.37792969 C99.67166437 5.29076375 97.67132651 7.28233989 95.6875 9.375 C94.32016094 10.76152529 92.94919403 12.14448447 91.57421875 13.5234375 C90.98213623 14.14138184 90.39005371 14.75932617 89.7800293 15.39599609 C87.95287054 17.04246888 86.24143539 18.0124994 84 19 C84 19.66 84 20.32 84 21 C82.3623728 22.45402342 80.66265804 23.83848678 78.9375 25.1875 C74.77460622 28.50279428 70.95668045 31.88533966 67.33984375 35.78515625 C66 37 66 37 64 37 C63.67 37.99 63.34 38.98 63 40 C61.34442971 41.47798317 59.62553414 42.88582353 57.875 44.25 C53.71557604 47.54085423 50.01197352 50.8813604 46.53515625 54.8828125 C45 56 45 56 43.14550781 55.74267578 C40.72156779 54.90361962 39.15235125 53.81634644 37.13671875 52.234375 C36.41419922 51.67363281 35.69167969 51.11289062 34.94726562 50.53515625 C34.20154297 49.94605469 33.45582031 49.35695312 32.6875 48.75 C24.02311076 41.18604461 24.02311076 41.18604461 14 36.25 C10.0674238 37.23314405 8.36640094 39.20241021 5.7109375 42.17578125 C4 44 4 44 0 47 C0 31.49 0 15.98 0 0 Z " fill="#FDFEFE" transform="translate(0,0)"/>
<path d="M0 0 C2.68777863 1.22736712 4.20389923 2.8896569 6.21484375 5.05078125 C9.87418255 8.84877703 13.63759875 12.10663491 17.88671875 15.22265625 C20.47263869 17.280067 22.70587483 19.57363213 25.02734375 21.92578125 C27.27858389 24.07194032 29.55804922 26.18718404 31.83984375 28.30078125 C32.46149414 28.87731445 33.08314453 29.45384766 33.72363281 30.04785156 C37.46048782 33.50371069 41.22994559 36.91139277 45.0859375 40.234375 C48.38124652 43.10533839 51.59912899 46.06268427 54.828125 49.0078125 C57.07556894 51.05097617 57.07556894 51.05097617 60.02734375 52.92578125 C60.02734375 53.58578125 60.02734375 54.24578125 60.02734375 54.92578125 C69.95248815 54.17387637 77.40904495 50.61207676 85.99609375 45.98828125 C88.00377778 44.93810806 90.03258641 43.96842126 92.08984375 43.01953125 C92.73195801 42.71877686 93.37407227 42.41802246 94.03564453 42.1081543 C95.79805624 41.28687874 97.5649146 40.47516502 99.33203125 39.6640625 C102.39991894 37.68549725 103.0933928 36.39558637 104.02734375 32.92578125 C104.35734375 32.92578125 104.68734375 32.92578125 105.02734375 32.92578125 C105.02734375 40.51578125 105.02734375 48.10578125 105.02734375 55.92578125 C55.85734375 55.92578125 6.68734375 55.92578125 -43.97265625 55.92578125 C-43.97265625 40.08578125 -43.97265625 24.24578125 -43.97265625 7.92578125 C-42.65265625 9.57578125 -41.33265625 11.22578125 -39.97265625 12.92578125 C-38.31005843 14.71982888 -38.31005843 14.71982888 -36.59765625 16.23828125 C-35.78167969 17.00591797 -35.78167969 17.00591797 -34.94921875 17.7890625 C-31.99003466 19.49088576 -30.35575754 19.46059487 -26.97265625 18.92578125 C-24.14302594 17.34954171 -21.6804333 15.3890394 -19.16015625 13.36328125 C-18.45600586 12.81841064 -17.75185547 12.27354004 -17.02636719 11.7121582 C-14.00233328 9.36473622 -11.02522913 6.96908489 -8.0703125 4.53515625 C-7.29558594 3.9009375 -6.52085938 3.26671875 -5.72265625 2.61328125 C-5.078125 2.06027344 -4.43359375 1.50726563 -3.76953125 0.9375 C-1.97265625 -0.07421875 -1.97265625 -0.07421875 0 0 Z " fill="#FDFEFD" transform="translate(43.97265625,92.07421875)"/>
<path d="M0 0 C0.99 0.495 0.99 0.495 2 1 C2.19870375 5.99854577 2.3433522 10.99476527 2.43945312 15.99633789 C2.47953163 17.69498764 2.53401432 19.393364 2.60351562 21.09106445 C3.16458196 35.15485231 3.16458196 35.15485231 0.37695312 39.5715332 C-1.65697833 41.37142784 -3.62772859 42.68881987 -6 44 C-6.9590625 44.73347656 -7.918125 45.46695313 -8.90625 46.22265625 C-9.7621875 46.82980469 -10.618125 47.43695313 -11.5 48.0625 C-17.47849511 52.32127739 -23.33512582 56.73067461 -29.17578125 61.17578125 C-31.24414062 62.74414062 -31.24414062 62.74414062 -33.3125 64.3125 C-34.01439453 64.84939453 -34.71628906 65.38628906 -35.43945312 65.93945312 C-36.11556641 66.45056641 -36.79167969 66.96167969 -37.48828125 67.48828125 C-38.09196533 67.94759033 -38.69564941 68.40689941 -39.31762695 68.88012695 C-41 70 -41 70 -44 71 C-44.2475 70.360625 -44.495 69.72125 -44.75 69.0625 C-45.80148727 66.80939427 -45.80148727 66.80939427 -48.0625 66.375 C-49.0215625 66.189375 -49.0215625 66.189375 -50 66 C-50.33 65.34 -50.66 64.68 -51 64 C-52.68157904 63.0528831 -52.68157904 63.0528831 -54.6875 62.1875 C-58.70220937 60.2705667 -61.70051391 57.96953749 -65 55 C-63.64690348 47.31574815 -55.23338124 42.46084626 -49.4296875 37.9921875 C-46.76811632 35.80987029 -44.41594129 33.45162728 -42 31 C-39.62500273 28.70675585 -37.22123522 26.44521734 -34.8125 24.1875 C-34.18408203 23.59001953 -33.55566406 22.99253906 -32.90820312 22.37695312 C-32.30556641 21.81298828 -31.70292969 21.24902344 -31.08203125 20.66796875 C-30.53780518 20.15516357 -29.9935791 19.6423584 -29.43286133 19.11401367 C-28 18 -28 18 -26 18 C-26 17.34 -26 16.68 -26 16 C-24.6015625 14.58984375 -24.6015625 14.58984375 -22.625 12.9375 C-18.37741597 9.34106076 -14.28224201 5.60207659 -10.19921875 1.8203125 C-6.58921226 -1.16772129 -4.36561675 -1.11938891 0 0 Z " fill="#0375B7" transform="translate(110,3)"/>
<path d="M0 0 C0 21.78 0 43.56 0 66 C-4.48251506 64.20699397 -6.73827563 62.79145287 -10.3125 59.75 C-18.21057858 53.0625758 -26.58799295 47.13165494 -35.08398438 41.23632812 C-35.80521484 40.73166016 -36.52644531 40.22699219 -37.26953125 39.70703125 C-37.91510986 39.2581958 -38.56068848 38.80936035 -39.22583008 38.34692383 C-40.97877071 37.01611697 -42.48423303 35.5923002 -44 34 C-42.67534819 30.95021081 -41.40928681 29.25262803 -38.7265625 27.30078125 C-38.07268555 26.81843018 -37.41880859 26.3360791 -36.74511719 25.83911133 C-36.04547852 25.33532959 -35.34583984 24.83154785 -34.625 24.3125 C-33.16401872 23.23964294 -31.70308157 22.1667258 -30.2421875 21.09375 C-29.51999023 20.5678125 -28.79779297 20.041875 -28.05371094 19.5 C-25.26564199 17.4636358 -22.50765139 15.38988195 -19.75 13.3125 C-18.80898437 12.60867187 -17.86796875 11.90484375 -16.8984375 11.1796875 C-14.81240026 9.61094251 -12.73511548 8.03355798 -10.6640625 6.4453125 C-10.11395508 6.02596436 -9.56384766 5.60661621 -8.99707031 5.17456055 C-7.46176211 4.00366851 -5.92999103 2.82814272 -4.3984375 1.65234375 C-2 0 -2 0 0 0 Z " fill="#FBFDFC" transform="translate(112,41)"/>
<path d="M0 0 C4.66122789 1.0902533 7.7432853 4.17038258 11.125 7.375 C11.64964844 7.85710937 12.17429688 8.33921875 12.71484375 8.8359375 C15.44438292 11.37890058 17.8852464 13.9226689 20 17 C15.06790705 21.31235353 10.00885569 25.34510343 4.75 29.25 C4.04359375 29.77851562 3.3371875 30.30703125 2.609375 30.8515625 C-6.52359197 37.66669315 -6.52359197 37.66669315 -12 37 C-14.73828125 35.2421875 -14.73828125 35.2421875 -17.3125 32.875 C-18.17488281 32.10929687 -19.03726562 31.34359375 -19.92578125 30.5546875 C-22.35241836 27.565948 -22.95399093 25.83408903 -23 22 C-21.953125 20.015625 -21.953125 20.015625 -20.25 18.25 C-19.61191406 17.58484375 -18.97382813 16.9196875 -18.31640625 16.234375 C-5.63286713 4 -5.63286713 4 -3 4 C-3 3.34 -3 2.68 -3 2 C-2.01 1.34 -1.02 0.68 0 0 Z " fill="#046CAE" transform="translate(23,75)"/>
<path d="M0 0 C1.65 1.65 3.3 3.3 5 5 C7.49912823 7.39825492 10.03135039 9.76060263 12.5625 12.125 C13.22185547 12.74503906 13.88121094 13.36507812 14.56054688 14.00390625 C15.20185547 14.60332031 15.84316406 15.20273438 16.50390625 15.8203125 C17.07955322 16.35930176 17.6552002 16.89829102 18.24829102 17.45361328 C20.09283751 19.08195579 22.01382638 20.54922497 24 22 C23.34 23.32 22.68 24.64 22 26 C21.34 26 20.68 26 20 26 C20 26.66 20 27.32 20 28 C18.6015625 29.41015625 18.6015625 29.41015625 16.625 31.0625 C13.24748529 33.9333875 9.91813997 36.8448448 6.625 39.8125 C5.37589844 40.93591797 5.37589844 40.93591797 4.1015625 42.08203125 C2.70501453 43.35657596 1.33693875 44.66306125 0 46 C0 30.82 0 15.64 0 0 Z " fill="#F9FBFC" transform="translate(0,51)"/>
<path d="M0 0 C0.66 0 1.32 0 2 0 C2 21.78 2 43.56 2 66 C-2.15930623 64.33627751 -4.44494912 63.08914549 -7.8125 60.375 C-8.60269531 59.74335937 -9.39289063 59.11171875 -10.20703125 58.4609375 C-11.09455078 57.73777344 -11.09455078 57.73777344 -12 57 C-10.265625 56.34765625 -10.265625 56.34765625 -8 56 C-5.859375 56.99609375 -5.859375 56.99609375 -3.75 58.4375 C-3.04359375 58.91058594 -2.3371875 59.38367188 -1.609375 59.87109375 C-1.07828125 60.24363281 -0.5471875 60.61617187 0 61 C0 60.28003342 0 59.56006683 0 58.81828308 C0 39.21218872 0 19.60609436 0 0 Z " fill="#E5EFF7" transform="translate(110,41)"/>
<path d="M0 0 C1.24910156 -0.00128906 2.49820313 -0.00257812 3.78515625 -0.00390625 C5.74388672 0.00189453 5.74388672 0.00189453 7.7421875 0.0078125 C9.05574219 0.00394531 10.36929688 0.00007813 11.72265625 -0.00390625 C13.59244141 -0.00197266 13.59244141 -0.00197266 15.5 0 C16.64871582 0.00112793 17.79743164 0.00225586 18.98095703 0.00341797 C21.6171875 0.1328125 21.6171875 0.1328125 22.6171875 1.1328125 C22.65811687 3.46578683 22.65960473 5.79986475 22.6171875 8.1328125 C13.29850212 5.58148311 13.29850212 5.58148311 10.0546875 3.4453125 C6.31454622 1.43139027 2.76281637 1.31823279 -1.3828125 2.1328125 C-3.82667422 3.56920469 -5.37832937 5.07693236 -7.3828125 7.1328125 C-8.0428125 5.1528125 -8.7028125 3.1728125 -9.3828125 1.1328125 C-6.04376799 0.01979766 -3.51651878 0.00344612 0 0 Z " fill="#EAF6F6" transform="translate(105.3828125,-0.1328125)"/>
<path d="M0 0 C0 3 0 3 -1 5 C2.465 4.505 2.465 4.505 6 4 C5.67 6.31 5.34 8.62 5 11 C5.66 11.33 6.32 11.66 7 12 C7 12.66 7 13.32 7 14 C8.32 13.67 9.64 13.34 11 13 C10.67 14.65 10.34 16.3 10 18 C10.66 18 11.32 18 12 18 C11.67 18.66 11.34 19.32 11 20 C8.53401506 18.26001062 6.07749904 16.50881774 3.625 14.75 C2.92632812 14.25886719 2.22765625 13.76773438 1.5078125 13.26171875 C0.8375 12.77832031 0.1671875 12.29492188 -0.5234375 11.796875 C-1.14138184 11.35698242 -1.75932617 10.91708984 -2.39599609 10.46386719 C-4.21132617 8.80713672 -5.03784324 7.24363192 -6 5 C-4.02 3.35 -2.04 1.7 0 0 Z " fill="#E6F2F6" transform="translate(74,68)"/>
<path d="M0 0 C0.66 0.33 1.32 0.66 2 1 C2 12.88 2 24.76 2 37 C1.67 37 1.34 37 1 37 C1 26.11 1 15.22 1 4 C0.01 4 -0.98 4 -2 4 C-2.66 4.66 -3.32 5.32 -4 6 C-4.66 5.67 -5.32 5.34 -6 5 C-6.33 5.66 -6.66 6.32 -7 7 C-7.66 6.34 -8.32 5.68 -9 5 C-9.33 6.32 -9.66 7.64 -10 9 C-10.66 9 -11.32 9 -12 9 C-12 8.01 -12 7.02 -12 6 C-12.99 6.99 -13.98 7.98 -15 9 C-15.66 8.67 -16.32 8.34 -17 8 C-15.56771184 6.68181446 -14.12897516 5.37063296 -12.6875 4.0625 C-11.88699219 3.33160156 -11.08648437 2.60070312 -10.26171875 1.84765625 C-6.60685698 -1.13809438 -4.40609127 -1.12976699 0 0 Z " fill="#0A7AB9" transform="translate(110,3)"/>
<path d="M0 0 C5.64874855 -0.33227933 9.23297135 -0.34980391 14 3 C15.98451771 3.71143088 17.98202112 4.38991336 20 5 C20 6.65 20 8.3 20 10 C19.67 9.01 19.34 8.02 19 7 C15.37 7.33 11.74 7.66 8 8 C8 6.35 8 4.7 8 3 C5.03 2.67 2.06 2.34 -1 2 C-0.67 1.34 -0.34 0.68 0 0 Z " fill="#2AB5F4" transform="translate(104,1)"/>
<path d="M0 0 C1.7734375 0.8203125 1.7734375 0.8203125 2.7734375 2.8203125 C1.8040625 3.0884375 0.8346875 3.3565625 -0.1640625 3.6328125 C-1.1746875 4.0246875 -2.1853125 4.4165625 -3.2265625 4.8203125 C-3.5565625 5.8103125 -3.8865625 6.8003125 -4.2265625 7.8203125 C-4.8865625 7.8203125 -5.5465625 7.8203125 -6.2265625 7.8203125 C-6.2265625 8.8103125 -6.2265625 9.8003125 -6.2265625 10.8203125 C-8.5365625 11.1503125 -10.8465625 11.4803125 -13.2265625 11.8203125 C-11.89043734 7.66826764 -10.28933183 5.60644291 -6.8515625 2.9453125 C-6.08070312 2.32914062 -5.30984375 1.71296875 -4.515625 1.078125 C-2.2265625 -0.1796875 -2.2265625 -0.1796875 0 0 Z " fill="#E9F2F4" transform="translate(44.2265625,92.1796875)"/>
<path d="M0 0 C0 3 0 3 -1 5 C-1.22467831 6.53668865 -1.40796805 8.07968054 -1.5625 9.625 C-1.64628906 10.44226562 -1.73007813 11.25953125 -1.81640625 12.1015625 C-1.87699219 12.72804688 -1.93757812 13.35453125 -2 14 C-3.32 14.33 -4.64 14.66 -6 15 C-6 14.34 -6 13.68 -6 13 C-6.99 13 -7.98 13 -9 13 C-9 9.5601241 -8.53558242 7.56728708 -6.15234375 5.04296875 C-4.14191738 3.30201752 -2.10706247 1.62229411 0 0 Z " fill="#1591CD" transform="translate(9,38)"/>
<path d="M0 0 C2.1875 -0.3125 2.1875 -0.3125 5 0 C7.8125 2.375 7.8125 2.375 10 5 C10 5.66 10 6.32 10 7 C10.66 7 11.32 7 12 7 C11.67 6.01 11.34 5.02 11 4 C13.97 4.495 13.97 4.495 17 5 C14.63707344 7.52588702 13.33537489 8.88820837 10 10 C9.7525 9.360625 9.505 8.72125 9.25 8.0625 C8.19851273 5.80939427 8.19851273 5.80939427 5.9375 5.375 C5.298125 5.25125 4.65875 5.1275 4 5 C3.67 4.34 3.34 3.68 3 3 C2.01 2.67 1.02 2.34 0 2 C0 1.34 0 0.68 0 0 Z " fill="#0F69A4" transform="translate(56,64)"/>
<path d="M0 0 C2.97 1.98 2.97 1.98 6 4 C5.34 5.32 4.68 6.64 4 8 C3.34 8 2.68 8 2 8 C2 8.66 2 9.32 2 10 C0.68 9.67 -0.64 9.34 -2 9 C-1.125 1.125 -1.125 1.125 0 0 Z " fill="#E4F0F4" transform="translate(18,69)"/>
<path d="M0 0 C0.69921875 1.76171875 0.69921875 1.76171875 1 4 C-0.29296875 5.95703125 -0.29296875 5.95703125 -2.1875 7.8125 C-2.79980469 8.43769531 -3.41210938 9.06289063 -4.04296875 9.70703125 C-6 11 -6 11 -8.23828125 10.69921875 C-8.81964844 10.46847656 -9.40101562 10.23773438 -10 10 C-9.875 8.125 -9.875 8.125 -9 6 C-7.01276732 5.29618843 -5.01222047 4.6288189 -3 4 C-2.67 3.01 -2.34 2.02 -2 1 C-1.34 1.33 -0.68 1.66 0 2 C0 1.34 0 0.68 0 0 Z " fill="#EEF4F7" transform="translate(51,45)"/>
<path d="M0 0 C4.66825827 -0.70731186 7.03280231 1.07722471 10.64453125 3.7109375 C11.09183594 4.13632813 11.53914063 4.56171875 12 5 C12 5.66 12 6.32 12 7 C12.66 7 13.32 7 14 7 C14 7.99 14 8.98 14 10 C10.19136032 8.65378455 7.34590149 6.94641263 4.1875 4.4375 C3.39730469 3.81746094 2.60710937 3.19742188 1.79296875 2.55859375 C0.90544922 1.78708984 0.90544922 1.78708984 0 1 C0 0.67 0 0.34 0 0 Z " fill="#DAEBF4" transform="translate(98,97)"/>
<path d="M0 0 C-3.16474305 3.25516428 -6.32752791 6.32008793 -10 9 C-10.66 9 -11.32 9 -12 9 C-11.814375 8.38125 -11.62875 7.7625 -11.4375 7.125 C-10.76313824 4.95839822 -10.76313824 4.95839822 -12 3 C-11.195625 2.87625 -10.39125 2.7525 -9.5625 2.625 C-8.716875 2.41875 -7.87125 2.2125 -7 2 C-6.67 1.34 -6.34 0.68 -6 0 C-3 -1 -3 -1 0 0 Z " fill="#1570AF" transform="translate(37,96)"/>
<path d="M0 0 C0.33 0 0.66 0 1 0 C1 3.3 1 6.6 1 10 C-3.49885947 10.86516528 -6.01647791 11.30903272 -10 9 C-9.44570312 8.76925781 -8.89140625 8.53851563 -8.3203125 8.30078125 C-3.56768485 6.25432116 -3.56768485 6.25432116 -0.5 2.25 C-0.335 1.5075 -0.17 0.765 0 0 Z " fill="#DBEFFA" transform="translate(148,125)"/>
<path d="M0 0 C2.31 1.98 4.62 3.96 7 6 C6.01 6.495 6.01 6.495 5 7 C5 7.66 5 8.32 5 9 C2.69 9.33 0.38 9.66 -2 10 C-1.34 9.34 -0.68 8.68 0 8 C-0.33 7.01 -0.66 6.02 -1 5 C-0.5625 2.3125 -0.5625 2.3125 0 0 Z " fill="#F5FBF9" transform="translate(11,62)"/>
<path d="M0 0 C0.53625 0.721875 1.0725 1.44375 1.625 2.1875 C4.2092888 5.247842 6.87248014 7.51220011 10 10 C8.1875 11.0625 8.1875 11.0625 6 12 C3 11 3 11 1.3125 8.8125 C-0.17161628 5.63225084 -0.24194353 3.46785727 0 0 Z " fill="#EBF1F6" transform="translate(0,100)"/>
<path d="M0 0 C-2.54782974 2.97246802 -5.45340883 4.41535288 -9 6 C-9.66 6 -10.32 6 -11 6 C-11 4.68 -11 3.36 -11 2 C-10.34 2 -9.68 2 -9 2 C-9 1.34 -9 0.68 -9 0 C-5.67465243 -1.10844919 -3.37817425 -0.84454356 0 0 Z " fill="#289FEA" transform="translate(131,137)"/>
<path d="M0 0 C0.66 0 1.32 0 2 0 C1.625 2.4375 1.625 2.4375 1 5 C-1.87470493 6.43735246 -3.81894588 6.38172649 -7 6 C-9.375 3.5 -9.375 3.5 -11 1 C-9.68 1 -8.36 1 -7 1 C-7 1.66 -7 2.32 -7 3 C-5.68 2.67 -4.36 2.34 -3 2 C-3 2.66 -3 3.32 -3 4 C-2.34 3.67 -1.68 3.34 -1 3 C-0.67 2.01 -0.34 1.02 0 0 Z " fill="#1B70AE" transform="translate(18,106)"/>
<path d="M0 0 C4.95696581 1.23924145 7.11658466 2.78577758 10 7 C7.0625 6.1875 7.0625 6.1875 4 5 C3.67 4.01 3.34 3.02 3 2 C2.34 2 1.68 2 1 2 C1.33 2.99 1.66 3.98 2 5 C4.50447516 6.21869929 4.50447516 6.21869929 7 7 C7 7.33 7 7.66 7 8 C4.19637237 8.22732116 2.53813483 8.34081872 0.125 6.8125 C-1 5 -1 5 -0.6875 2.3125 C-0.460625 1.549375 -0.23375 0.78625 0 0 Z " fill="#1483C6" transform="translate(81,86)"/>
<path d="M0 0 C1.18771723 3.42943519 0.80226223 5.37784675 -0.4375 8.75 C-0.72496094 9.54921875 -1.01242188 10.3484375 -1.30859375 11.171875 C-1.53675781 11.77515625 -1.76492188 12.3784375 -2 13 C-4 12 -4 12 -4.9375 9.3125 C-5.00563092 5.70156134 -4.76089537 5.23947585 -2.5625 2.625 C-1.2940625 1.325625 -1.2940625 1.325625 0 0 Z " fill="#1671AE" transform="translate(5,91)"/>
<path d="M0 0 C2.97 0.33 5.94 0.66 9 1 C8.01 2.485 8.01 2.485 7 4 C9.05233685 6.2477975 10.00667261 7.0022242 13 8 C13.33 8.99 13.66 9.98 14 11 C9.88416276 10.46147924 7.7329259 8.25615375 4.75 5.5 C3.85796875 4.6853125 2.9659375 3.870625 2.046875 3.03125 C1.37140625 2.3609375 0.6959375 1.690625 0 1 C0 0.67 0 0.34 0 0 Z " fill="#1378BF" transform="translate(79,123)"/>
<path d="M0 0 C0.99 0 1.98 0 3 0 C3 0.66 3 1.32 3 2 C4.32 2 5.64 2 7 2 C7 2.66 7 3.32 7 4 C5.35 4 3.7 4 2 4 C2.33 4.99 2.66 5.98 3 7 C1.35 7 -0.3 7 -2 7 C-2.125 4.625 -2.125 4.625 -2 2 C-1.34 1.34 -0.68 0.68 0 0 Z " fill="#0291D9" transform="translate(18,41)"/>
<path d="M0 0 C0.66 1.65 1.32 3.3 2 5 C1.2575 5.144375 0.515 5.28875 -0.25 5.4375 C-2.52027739 5.90187492 -4.75759479 6.41863569 -7 7 C-6.22006468 2.47637516 -4.81844319 0 0 0 Z " fill="#0C6CAA" transform="translate(52,51)"/>
<path d="M0 0 C2.31 0.33 4.62 0.66 7 1 C6.01 1.495 6.01 1.495 5 2 C4.66781808 5.00259517 4.66781808 5.00259517 6.5 6.6875 C6.995 7.120625 7.49 7.55375 8 8 C7.67 8.66 7.34 9.32 7 10 C5.82174642 9.09827532 4.65768423 8.17798498 3.5 7.25 C2.8503125 6.73953125 2.200625 6.2290625 1.53125 5.703125 C0 4 0 4 0 0 Z " fill="#138DCD" transform="translate(8,56)"/>
<path d="M0 0 C0.33 0.99 0.66 1.98 1 3 C0.01 3.495 0.01 3.495 -1 4 C-1.99 3.67 -2.98 3.34 -4 3 C-4.33 3.99 -4.66 4.98 -5 6 C-6.32 4.35 -7.64 2.7 -9 1 C-6.04335481 -0.4783226 -3.25770263 -0.06032783 0 0 Z " fill="#0878C8" transform="translate(104,136)"/>
<path d="M0 0 C2.625 -0.1875 2.625 -0.1875 5 0 C3.44499019 3.81684226 0.96404505 6.19195732 -2 9 C-2.25 3.375 -2.25 3.375 0 0 Z " fill="#E6F1F7" transform="translate(2,88)"/>
<path d="M0 0 C0.66 0.66 1.32 1.32 2 2 C2.66 1.67 3.32 1.34 4 1 C3.8125 3.3125 3.8125 3.3125 3 6 C0.15174779 8.15543411 -2.4948582 9.35089967 -6 10 C-6 9.34 -6 8.68 -6 8 C-5.01 8 -4.02 8 -3 8 C-2.67 7.01 -2.34 6.02 -2 5 C-1.34 4.67 -0.68 4.34 0 4 C0 2.68 0 1.36 0 0 Z " fill="#279FE5" transform="translate(144,124)"/>
<path d="M0 0 C2.5 1.375 2.5 1.375 5 3 C5 3.66 5 4.32 5 5 C10.445 4.505 10.445 4.505 16 4 C15.67 4.66 15.34 5.32 15 6 C10.38 6 5.76 6 1 6 C0.67 4.02 0.34 2.04 0 0 Z " fill="#D3E8F8" transform="translate(99,142)"/>
<path d="M0 0 C1.32 0 2.64 0 4 0 C4 1.98 4 3.96 4 6 C2.68 6.33 1.36 6.66 0 7 C0 6.34 0 5.68 0 5 C-0.99 5 -1.98 5 -3 5 C-2.67 3.68 -2.34 2.36 -2 1 C-2 1.66 -2 2.32 -2 3 C-1.34 2.67 -0.68 2.34 0 2 C0 1.34 0 0.68 0 0 Z " fill="#0C96DF" transform="translate(3,46)"/>
<path d="M0 0 C3.125 0.25 3.125 0.25 5 1.75 C5.37125 2.245 5.7425 2.74 6.125 3.25 C3.55286866 4.86949011 2.44830841 5.29408751 -0.625 4.875 C-1.3675 4.66875 -2.11 4.4625 -2.875 4.25 C-3.205 3.26 -3.535 2.27 -3.875 1.25 C-2.875 0.25 -2.875 0.25 0 0 Z " fill="#1B94D3" transform="translate(13.875,35.75)"/>
<path d="M0 0 C2.04119788 1.61594832 4.04072937 3.2856382 6 5 C6 5.66 6 6.32 6 7 C3.03 6.505 3.03 6.505 0 6 C-0.38218767 4.34385343 -0.71395102 2.67542976 -1 1 C-0.67 0.67 -0.34 0.34 0 0 Z " fill="#F3FAF9" transform="translate(49,97)"/>
<path d="M0 0 C0.66 1.32 1.32 2.64 2 4 C1.67 4.33 1.34 4.66 1 5 C-1.69082872 4.82364548 -4.32851446 4.38164079 -7 4 C-6.34 3.67 -5.68 3.34 -5 3 C-5 2.34 -5 1.68 -5 1 C-3 0 -3 0 0 0 Z " fill="#066DB0" transform="translate(73,64)"/>
<path d="M0 0 C1.34173403 0.92543709 2.67320159 1.86577405 4 2.8125 C5.11375 3.59560547 5.11375 3.59560547 6.25 4.39453125 C6.8275 4.92433594 7.405 5.45414063 8 6 C8 6.99 8 7.98 8 9 C7.67 8.34 7.34 7.68 7 7 C3.97065509 6.34227572 3.97065509 6.34227572 1 6 C0.67 4.02 0.34 2.04 0 0 Z " fill="#E1EFF5" transform="translate(90,134)"/>
<path d="M0 0 C0.33 0.66 0.66 1.32 1 2 C0.360625 2.5775 -0.27875 3.155 -0.9375 3.75 C-2.98223868 5.98062401 -3.58205199 7.07436391 -4 10 C-5.65 9.67 -7.3 9.34 -9 9 C-6 6 -3 3 0 0 Z " fill="#2179B1" transform="translate(59,42)"/>
<path d="M0 0 C0.66 0.33 1.32 0.66 2 1 C0.37982158 2.33918806 -1.24629343 3.6711969 -2.875 5 C-4.23238281 6.11375 -4.23238281 6.11375 -5.6171875 7.25 C-8 9 -8 9 -10 9 C-10 8.34 -10 7.68 -10 7 C-9.34 7 -8.68 7 -8 7 C-8 6.01 -8 5.02 -8 4 C-6.68 4 -5.36 4 -4 4 C-3.67 3.01 -3.34 2.02 -3 1 C-2.01 0.67 -1.02 0.34 0 0 Z " fill="#2177B2" transform="translate(104,44)"/>
<path d="M0 0 C4.04790179 0.02582393 6.47952997 0.7180232 9.75 3.25 C6.8585745 4.69571275 4.87991264 3.86370836 1.75 3.25 C0.8425 3.085 -0.065 2.92 -1 2.75 C-3.25 2.25 -3.25 2.25 -5.25 1.25 C-3.68966377 -0.31033623 -2.16052864 0.04292441 0 0 Z " fill="#26ABE6" transform="translate(108.25,0.75)"/>
<path d="M0 0 C-2.64 1.98 -5.28 3.96 -8 6 C-8.33 4.68 -8.66 3.36 -9 2 C-4.5 -1.125 -4.5 -1.125 0 0 Z " fill="#E7F2F6" transform="translate(78,26)"/>
<path d="M0 0 C2.375 -0.1875 2.375 -0.1875 5 0 C5.66 0.99 6.32 1.98 7 3 C6.67 3.99 6.34 4.98 6 6 C4.02 5.01 2.04 4.02 0 3 C0 2.01 0 1.02 0 0 Z " fill="#108ED7" transform="translate(17,65)"/>
<path d="M0 0 C-1.3125 2.5 -1.3125 2.5 -3 5 C-3.99 5 -4.98 5 -6 5 C-7.6875 3 -7.6875 3 -9 1 C-5.92677456 0.08941469 -3.19902639 -0.08886184 0 0 Z " fill="#E4F1F5" transform="translate(44,48)"/>
<path d="M0 0 C4.6302521 1.46218487 4.6302521 1.46218487 6.375 4 C7 6 7 6 6 8 C4.35 7.67 2.7 7.34 1 7 C1.99 6.01 2.98 5.02 4 4 C2.68 2.68 1.36 1.36 0 0 Z " fill="#0674B6" transform="translate(105,104)"/>
<path d="M0 0 C2.31 1.98 4.62 3.96 7 6 C5.68 6.33 4.36 6.66 3 7 C1.68 5.35 0.36 3.7 -1 2 C-0.67 1.34 -0.34 0.68 0 0 Z " fill="#E1EFF3" transform="translate(75,120)"/>
<path d="M0 0 C0.66 1.32 1.32 2.64 2 4 C-0.97 6.475 -0.97 6.475 -4 9 C-4.66 8.34 -5.32 7.68 -6 7 C-4.68 6.34 -3.36 5.68 -2 5 C-2 4.34 -2 3.68 -2 3 C-1.34 3 -0.68 3 0 3 C0 2.01 0 1.02 0 0 Z " fill="#E8F2F4" transform="translate(59,37)"/>
<path d="M0 0 C1.65 0 3.3 0 5 0 C5 0.99 5 1.98 5 3 C4.01 3 3.02 3 2 3 C2.66 3.33 3.32 3.66 4 4 C3.67 4.99 3.34 5.98 3 7 C1.68 5.68 0.36 4.36 -1 3 C-0.67 2.01 -0.34 1.02 0 0 Z " fill="#0B7CC5" transform="translate(75,116)"/>
<path d="M0 0 C2.375 -0.125 2.375 -0.125 5 0 C7 2 7 2 7 5 C6.01 5 5.02 5 4 5 C3.67 4.34 3.34 3.68 3 3 C2.01 2.67 1.02 2.34 0 2 C0 1.34 0 0.68 0 0 Z " fill="#0166A6" transform="translate(56,64)"/>
<path d="M0 0 C1.98 1.32 3.96 2.64 6 4 C2.67465243 5.10844919 0.37817425 4.84454356 -3 4 C-2.01 2.68 -1.02 1.36 0 0 Z " fill="#EBF3F9" transform="translate(69,115)"/>
<path d="M0 0 C0.99 0 1.98 0 3 0 C2.67 1.65 2.34 3.3 2 5 C-1 5 -1 5 -2.6875 3.5 C-3.120625 3.005 -3.55375 2.51 -4 2 C-2.68 2.33 -1.36 2.66 0 3 C0 2.01 0 1.02 0 0 Z " fill="#1887D0" transform="translate(68,108)"/>
<path d="M0 0 C2.64 0 5.28 0 8 0 C8.33 0.66 8.66 1.32 9 2 C6 4 6 4 3 4 C1.3125 2 1.3125 2 0 0 Z " fill="#2890D0" transform="translate(51,98)"/>
<path d="M0 0 C1.32 0.33 2.64 0.66 4 1 C1.16569547 4.2542015 -0.68607774 5.5206753 -5 6 C-3.625 4 -3.625 4 -2 2 C-1.34 2 -0.68 2 0 2 C0 1.34 0 0.68 0 0 Z " fill="#1D72AE" transform="translate(20,77)"/>
<path d="M0 0 C-0.99 0.33 -1.98 0.66 -3 1 C-3 1.66 -3 2.32 -3 3 C-2.34 3.33 -1.68 3.66 -1 4 C-3.31 4.33 -5.62 4.66 -8 5 C-7.625 3.0625 -7.625 3.0625 -7 1 C-4.53721199 -0.231394 -2.7204945 -0.07159196 0 0 Z " fill="#EAF7F9" transform="translate(18,32)"/>
<path d="M0 0 C2.25 0.25 2.25 0.25 4 1 C3.67 2.32 3.34 3.64 3 5 C2.34 5 1.68 5 1 5 C1 4.01 1 3.02 1 2 C0.01 2.99 -0.98 3.98 -2 5 C-2.66 4.67 -3.32 4.34 -4 4 C-2.25 1.9375 -2.25 1.9375 0 0 Z " fill="#268BC2" transform="translate(97,7)"/>
<path d="M0 0 C0.66 0.66 1.32 1.32 2 2 C-1.38018531 3.04005702 -4.4780279 3.08004482 -8 3 C-8 2.34 -8 1.68 -8 1 C-5.23749964 -0.38125018 -3.05268901 -0.19079306 0 0 Z " fill="#F1F8F5" transform="translate(132,140)"/>
<path d="M0 0 C1.65 1.65 3.3 3.3 5 5 C4.34 5 3.68 5 3 5 C2.67 5.66 2.34 6.32 2 7 C1.01 6.34 0.02 5.68 -1 5 C-0.67 3.35 -0.34 1.7 0 0 Z " fill="#E1EFF3" transform="translate(11,62)"/>
<path d="M0 0 C-3.20380017 2.13586678 -4.01939967 2.23132175 -7.6875 2.125 C-8.89986328 2.09792969 -8.89986328 2.09792969 -10.13671875 2.0703125 C-11.05904297 2.03550781 -11.05904297 2.03550781 -12 2 C-12 1.67 -12 1.34 -12 1 C-7.58774263 -0.47075246 -4.51718381 -1.36884358 0 0 Z " fill="#2A9DE3" transform="translate(116,145)"/>
<path d="M0 0 C1.98 0.495 1.98 0.495 4 1 C4 2.32 4 3.64 4 5 C3.01 5.33 2.02 5.66 1 6 C0.34 5.34 -0.32 4.68 -1 4 C-0.625 1.875 -0.625 1.875 0 0 Z " fill="#EEF3F0" transform="translate(92,88)"/>
<path d="M0 0 C1.98 1.32 3.96 2.64 6 4 C5.34 4.66 4.68 5.32 4 6 C1.08482708 4.92598892 -0.77810176 4.22189824 -3 2 C-2.01 2 -1.02 2 0 2 C0 1.34 0 0.68 0 0 Z " fill="#1091D5" transform="translate(35,50)"/>
<path d="M0 0 C1.98 0.495 1.98 0.495 4 1 C3.67 2.32 3.34 3.64 3 5 C1.68 4.67 0.36 4.34 -1 4 C-0.67 2.68 -0.34 1.36 0 0 Z " fill="#E2F0F3" transform="translate(42,51)"/>
<path d="M0 0 C1.98 0 3.96 0 6 0 C6.33 0.66 6.66 1.32 7 2 C6.01 3.485 6.01 3.485 5 5 C3.35 3.35 1.7 1.7 0 0 Z " fill="#E5F3F5" transform="translate(24,41)"/>
<path d="M0 0 C0.66 0.33 1.32 0.66 2 1 C2 1.66 2 2.32 2 3 C1.01 3.33 0.02 3.66 -1 4 C-1.33 4.99 -1.66 5.98 -2 7 C-3.32 6.34 -4.64 5.68 -6 5 C-4.02 3.35 -2.04 1.7 0 0 Z " fill="#1C7FBB" transform="translate(70,32)"/>
<path d="M0 0 C1.67542976 0.28604898 3.34385343 0.61781233 5 1 C4.01 1.495 4.01 1.495 3 2 C3 2.66 3 3.32 3 4 C2.01 4.33 1.02 4.66 0 5 C-0.5625 3.0625 -0.5625 3.0625 -1 1 C-0.67 0.67 -0.34 0.34 0 0 Z " fill="#E7F2F2" transform="translate(81,17)"/>
<path d="M0 0 C0.94875 0.04125 1.8975 0.0825 2.875 0.125 C2.875 1.115 2.875 2.105 2.875 3.125 C0.235 2.795 -2.405 2.465 -5.125 2.125 C-3.125 0.125 -3.125 0.125 0 0 Z " fill="#E7F2F6" transform="translate(143.125,132.875)"/>
<path d="M0 0 C2.97 0.33 5.94 0.66 9 1 C8.67 1.66 8.34 2.32 8 3 C7.01 3 6.02 3 5 3 C4.67 3.66 4.34 4.32 4 5 C2.68 3.35 1.36 1.7 0 0 Z " fill="#1B86C7" transform="translate(79,123)"/>
<path d="M0 0 C0.99 0.33 1.98 0.66 3 1 C3.33 1.99 3.66 2.98 4 4 C3.34 4.66 2.68 5.32 2 6 C0.68 4.35 -0.64 2.7 -2 1 C-1.34 0.67 -0.68 0.34 0 0 Z " fill="#208AD1" transform="translate(71,113)"/>
<path d="M0 0 C2.88575819 0.39803561 3.82189513 0.79009069 5.75 3.0625 C6.1625 3.701875 6.575 4.34125 7 5 C4.03 4.505 4.03 4.505 1 4 C0.67 2.68 0.34 1.36 0 0 Z " fill="#0262A1" transform="translate(36,87)"/>
<path d="M0 0 C0.66 0 1.32 0 2 0 C2 0.66 2 1.32 2 2 C2.99 2 3.98 2 5 2 C5.33 3.65 5.66 5.3 6 7 C3.95880212 5.38405168 1.95927063 3.7143618 0 2 C0 1.34 0 0.68 0 0 Z " fill="#198ECC" transform="translate(1,51)"/>
<path d="M0 0 C-0.66 1.32 -1.32 2.64 -2 4 C-3.65 3.67 -5.3 3.34 -7 3 C-4.74624683 0.74624683 -3.20799182 0 0 0 Z " fill="#E9F5F0" transform="translate(24,34)"/>
</svg>
